<?xml version="1.0" encoding="UTF-8"?>
<svg id="Layer_1" data-name="Layer 1" xmlns="http://www.w3.org/2000/svg" version="1.1" xmlns:xlink="http://www.w3.org/1999/xlink" viewBox="0 0 398 104">
  <defs>
    <style>
      .cls-1 {
        display: none;
        isolation: isolate;
      }

      .cls-2 {
        fill: #fff;
        stroke-width: 0px;
      }
    </style>
  </defs>
  <g>
    <polygon class="cls-2" points="20.3 95 19.2 96.2 12.1 96.2 10.9 95 10.9 34.7 11.9 33.6 19.8 33.6 51.9 80.4 51.9 10.5 53 9.4 60.2 9.4 61.3 10.5 61.3 95 60.1 96.2 52.2 96.2 20.1 49.4 20.3 95"/>
    <path class="cls-2" d="M238.5,19.1h148.8l1.2,1v5.2l-1.1,1h-148.8v57.4s-.1,7,11,3.9l1.3,1.2v5.6s-11.5,3.4-17.5-1.5c0,0-3.2-2.2-3.7-7.2V26.2h-21.5l-1.2-1.2v-4.9l1.2-1.1h21.4v-9.8l1.2-1h6.7l1.1,1v9.9Z"/>
    <path class="cls-2" d="M356.8,30.8h-7.1v64.8h7.1v-30.2c1.7-2.3,3.6-4.2,5.9-5.5s4.6-2,7.2-2,5.2.9,6.5,2.6c1.3,1.7,2,4.3,2,7.7v27.4h7.1v-28.4c0-3.1-.4-5.6-1.3-7.6s-2-3.5-3.4-4.6-2.9-1.9-4.6-2.3-3.3-.6-5-.6-3.1.2-4.4.5c-1.4.4-2.7.8-3.9,1.5s-2.3,1.3-3.3,2.2-1.9,1.8-2.7,2.8h-.1v-28.3h0ZM321.8,52.5c-1.7.3-3.3.9-4.9,1.7s-3.1,1.7-4.4,2.9c-1.4,1.2-2.6,2.6-3.6,4.3s-1.9,3.7-2.5,5.9c-.6,2.2-.9,4.8-.9,7.6s.6,7,1.7,9.8c1.1,2.7,2.7,5,4.6,6.8,2,1.8,4.2,3.1,6.9,4,2.6.9,5.4,1.3,8.3,1.3s2.3,0,3.4-.2,2.2-.3,3.2-.5,1.9-.5,2.8-.8,1.5-.6,2-.9v-5.8c-1.7.7-3.5,1.2-5.3,1.6s-3.6.6-5.4.6-4.6-.4-6.5-1.2c-1.9-.8-3.4-1.9-4.7-3.3-1.2-1.4-2.2-3.1-2.8-5-.6-1.9-.9-4.1-.9-6.4s.4-5.8,1.3-7.9c.8-2.1,1.9-3.9,3.3-5.1,1.4-1.3,2.9-2.2,4.7-2.8,1.7-.6,3.5-.9,5.3-.9s3.3.2,5,.5c1.6.4,3.4.9,5.3,1.6v-5.8c-1.4-.8-3-1.4-5-1.8-1.9-.4-3.9-.6-6.1-.6-1.4-.1-3.1,0-4.8.4ZM275.7,89.9c-2-.5-3.7-1.4-5.1-2.6-1.5-1.2-2.6-2.7-3.4-4.6s-1.3-4.2-1.3-6.9h30.1v-2.6c0-3.8-.4-7-1.4-9.7-.9-2.7-2.1-4.9-3.7-6.6-1.6-1.7-3.4-2.9-5.5-3.7s-4.4-1.2-6.8-1.2-5.1.5-7.5,1.4c-2.4,1-4.5,2.4-6.3,4.3-1.8,1.9-3.3,4.3-4.4,7.1-1.1,2.9-1.6,6.2-1.6,10.1s.6,7.3,1.7,10.1c1.1,2.8,2.7,5.1,4.7,6.8,2,1.7,4.4,3,7.1,3.8s5.7,1.2,8.8,1.2,5.1-.2,7.4-.6,4.2-1,5.8-1.8v-5.8c-1.9.7-3.9,1.2-5.8,1.6s-4.1.6-6.4.6c-2.4,0-4.5-.3-6.4-.9ZM282.6,58.9c1.3.6,2.3,1.5,3.2,2.5.9,1.1,1.5,2.3,2,3.8.4,1.4.7,3,.7,4.7h-22.3c.2-1.6.6-3.2,1.2-4.6s1.5-2.7,2.6-3.8,2.3-1.9,3.7-2.6,2.9-.9,4.6-.9c1.6,0,3.1.3,4.3.9Z"/>
    <path class="cls-2" d="M196.7,90.4c-1.9-.5-3.6-1.4-5-2.5s-2.6-2.6-3.4-4.5c-.8-1.8-1.2-4.1-1.2-6.7h29.6v-2.6c0-3.7-.4-6.8-1.3-9.4-.9-2.6-2.1-4.7-3.6-6.4s-3.3-2.9-5.4-3.6c-2.1-.8-4.3-1.2-6.7-1.2s-5,.5-7.3,1.4-4.4,2.3-6.2,4.2-3.2,4.2-4.3,6.9c-1.1,2.8-1.6,6-1.6,9.8s.6,7.1,1.7,9.8c1.1,2.7,2.7,4.9,4.6,6.6,2,1.7,4.3,2.9,7,3.7,2.7.8,5.6,1.1,8.6,1.1s5-.2,7.3-.6,4.2-1,5.7-1.7v-5.6c-1.9.7-3.8,1.2-5.7,1.5-1.9.4-4,.5-6.3.5-2.5,0-4.5-.1-6.5-.7ZM203.6,60.2c1.2.6,2.3,1.4,3.2,2.5.9,1,1.5,2.3,1.9,3.7s.7,2.9.7,4.5h-21.9c.2-1.6.5-3.1,1.2-4.5.6-1.4,1.5-2.6,2.5-3.7,1-1,2.2-1.9,3.6-2.5,1.4-.6,2.9-.9,4.5-.9s3.1.3,4.3.9ZM140.8,33h-7v63h7v-29.4c1.6-2.3,3.6-4,5.8-5.3s4.6-1.9,7-1.9,5.1.8,6.4,2.5c1.3,1.7,2,4.2,2,7.5v26.6h7v-27.7c0-3-.4-5.5-1.3-7.4-.9-1.9-2-3.4-3.4-4.5s-2.9-1.8-4.5-2.2-3.3-.6-4.9-.6-3,.2-4.4.5-2.6.8-3.8,1.4c-1.2.6-2.2,1.3-3.2,2.1s-1.8,1.7-2.6,2.7h-.1v-27.3ZM106.4,54.1c-1.7.3-3.3.9-4.8,1.6-1.6.7-3,1.7-4.4,2.9s-2.6,2.6-3.6,4.2c-1,1.7-1.8,3.6-2.4,5.7-.6,2.2-.9,4.6-.9,7.4s.6,6.8,1.7,9.5,2.6,4.9,4.6,6.6c1.9,1.7,4.2,3,6.8,3.9,2.6.8,5.3,1.3,8.2,1.3s2.2,0,3.3-.2c1.1,0,2.2-.3,3.2-.5s1.9-.5,2.7-.8c.8-.3,1.5-.6,2-.9v-5.6c-1.7.7-3.4,1.2-5.2,1.5-1.8.4-3.5.5-5.3.5s-4.5-.4-6.4-1.2c-1.8-.8-3.4-1.8-4.6-3.2-1.2-1.4-2.1-3-2.8-4.9-.6-1.9-.9-3.9-.9-6.2s.4-5.7,1.2-7.7c.8-2.1,1.9-3.7,3.3-5,1.4-1.3,2.9-2.2,4.6-2.7,1.7-.6,3.4-.8,5.2-.8s3.3.2,4.9.5,3.3.9,5.2,1.6v-5.6c-1.4-.8-3-1.3-4.9-1.8-1.9-.4-3.9-.6-6-.6-1.4,0-3,0-4.7.5ZM78.6,45v-7.5h-7v7.5h7ZM78.8,96v-41.4h-7v41.4h7Z"/>
  </g>
  <image class="cls-1" width="150" height="46" transform="translate(-20.2 -118.2) scale(2.5 2.4)" xlink:href="NT_logo.png"/>
</svg>